<svg xmlns="http://www.w3.org/2000/svg" xmlns:xlink="http://www.w3.org/1999/xlink" width="1024" height="1024" viewBox="0 0 1024 1024" xmlns:c2pa="http://c2pa.org/manifest"><path fill="#053727" d="M424.873 378.207C452.029 374.09 476.399 384.137 499.43 396.781C483.943 410.475 469.623 426.409 459.306 444.38C446.752 439.986 433.973 436.867 420.877 440.779C409.99 444.03 403.266 454.774 407.026 465.797C408.359 469.626 410.947 472.892 414.371 475.063C423.306 480.804 447.562 484.091 458.636 487.325C467.866 490.066 476.665 494.093 484.772 499.288C495.591 506.194 507.83 517.828 514.948 528.307C528.398 548.11 538.269 567.64 561.52 578.397C586.306 589.863 608.778 586.967 633.549 578.139C633.809 572.486 634.187 564.232 633.499 558.754C654.216 543.446 675.586 529.403 696.479 514.13L696.575 558.125L696.585 603.303C667.496 628.755 647.822 640.498 607.433 645.557C560.52 651.433 512.694 628.116 484.185 591.308C472.529 576.26 469.377 562.354 451.695 551.187C442.805 545.198 432.86 542.971 422.606 540.204C384.561 529.937 348.058 510.598 343.473 467.038C337.976 414.818 375.324 382.66 424.873 378.207Z"/><path fill="#053727" d="M587.349 378.215C622.365 374.213 663.731 391.933 688.248 416.619C672.371 429.276 658.531 441.983 643.284 455.195C613.323 431.509 567.002 433.863 538.944 459.649C524.946 473.814 519.586 484.041 515.812 503.435C499.521 488.177 486.573 477.861 464.8 470.348C481.273 422.335 529.226 383.588 579.734 378.791C582.256 378.551 584.821 378.377 587.349 378.215Z"/><path fill="#053727" d="M379.748 563.953C381.394 564.427 386.995 570.823 389.085 572.281C408.652 585.93 436.016 592.88 458.389 582.723C468.407 600.222 480.784 614.143 496.252 626.888C482.832 636.104 463.679 643.101 447.62 645.358C403.268 651.786 354.661 632.533 326.997 597.146C344.656 586.202 362.24 575.137 379.748 563.953Z"/><path fill="#C8863C" d="M634.62 484.986C654.327 487.337 667.755 492.004 682.724 504.872C671.297 512.104 660.043 519.194 648.882 526.859C641.519 531.915 630.86 537.811 624.402 543.546L621.294 541.865C610.158 535.545 594.249 528.16 580.967 530.603C578.758 531.009 575.449 532.851 573.371 533.934C575.771 530.511 579.126 526.074 582.316 523.385C598.109 510.071 617.057 495.786 634.62 484.986Z"/></svg>